<svg width="14" height="16" viewBox="0 0 14 16" fill="none" xmlns="http://www.w3.org/2000/svg">
<path d="M11.4102 3.21601C11.3087 3.16356 11.2099 3.10605 11.1142 3.04372C10.8358 2.85966 10.5805 2.64278 10.3539 2.39776C9.78686 1.74898 9.57509 1.0908 9.49708 0.629983H9.50022C9.43506 0.247482 9.462 0 9.46607 0H6.88348V9.98637C6.88348 10.1205 6.88348 10.253 6.87785 10.3839C6.87785 10.4002 6.87628 10.4152 6.87534 10.4328C6.87534 10.44 6.87534 10.4475 6.87377 10.455C6.87377 10.4569 6.87377 10.4588 6.87377 10.4607C6.84655 10.819 6.73169 11.1651 6.5393 11.4686C6.34691 11.7721 6.08288 12.0237 5.77044 12.2012C5.44481 12.3864 5.07652 12.4836 4.70188 12.4831C3.49862 12.4831 2.52341 11.502 2.52341 10.2902C2.52341 9.07852 3.49862 8.09736 4.70188 8.09736C4.92966 8.09715 5.15602 8.133 5.37259 8.20356L5.37572 5.57399C4.71829 5.48906 4.05038 5.54131 3.41415 5.72744C2.77792 5.91356 2.18716 6.22952 1.67915 6.65539C1.23402 7.04215 0.859794 7.50363 0.573316 8.01905C0.464299 8.20701 0.0529774 8.9623 0.00316773 10.1881C-0.0281591 10.8839 0.180791 11.6047 0.28041 11.9026V11.9089C0.343064 12.0843 0.585847 12.683 0.981505 13.1877C1.30055 13.5925 1.67749 13.9481 2.10019 14.2431V14.2368L2.10645 14.2431C3.35671 15.0926 4.74292 15.0369 4.74292 15.0369C4.98288 15.0272 5.78673 15.0369 6.6996 14.6043C7.71208 14.1247 8.28849 13.4101 8.28849 13.4101C8.65674 12.9831 8.94955 12.4965 9.15437 11.9712C9.38807 11.3569 9.46607 10.6201 9.46607 10.3256V5.02765C9.4974 5.04644 9.91467 5.32243 9.91467 5.32243C9.91467 5.32243 10.5158 5.70775 11.4538 5.95868C12.1267 6.13724 13.0333 6.17484 13.0333 6.17484V3.61105C12.7156 3.64551 12.0706 3.54526 11.4102 3.21601Z" fill="white"/>
</svg>
